<?xml version="1.0" encoding="UTF-8"?>
<!-- Generator: visioncortex VTracer 0.6.4 -->
<svg version="1.1" xmlns="http://www.w3.org/2000/svg" width="1080" height="1350">
<path d="M0 0 C18.655313 -0.092813 18.655313 -0.092813 37.6875 -0.1875 C41.589089 -0.214812 45.490679 -0.242124 49.510498 -0.270264 C54.339478 -0.283813 54.339478 -0.283813 56.612625 -0.286331 C58.172913 -0.290885 59.733192 -0.301325 61.293411 -0.316727 C77.280788 -0.466417 91.405287 0.947882 103.75 12.1875 C112.899859 21.986285 115.547487 33.281896 115.308594 46.308594 C114.331148 58.000819 110.380231 68.11553 101.6875 76.132812 C98.165431 78.994493 95.443762 81.000429 91 82 C93.331844 86.20916 95.665428 90.417353 98 94.625 C98.342256 95.242038 98.684512 95.859076 99.03714 96.494812 C103.55166 104.631248 108.099816 112.744907 112.777344 120.789062 C114 123 114 123 114 124 C104.1 124 94.2 124 84 124 C81.999375 120.308125 79.99875 116.61625 77.9375 112.8125 C77.322537 111.677883 76.707573 110.543267 76.073975 109.374268 C75.308392 107.961173 75.308392 107.961173 74.527344 106.519531 C74.019373 105.582141 73.511401 104.644751 72.988037 103.678955 C69.985585 98.122778 66.994188 92.560635 64 87 C44.695 86.505 44.695 86.505 25 86 C25 98.54 25 111.08 25 124 C16.75 124 8.5 124 0 124 C0 83.08 0 42.16 0 0 Z M25 22 C25 35.86 25 49.72 25 64 C31.368739 64.092226 37.735127 64.171746 44.104004 64.219727 C46.266845 64.239744 48.429632 64.266966 50.592285 64.301758 C53.715304 64.350712 56.837603 64.373068 59.960938 64.390625 C60.915518 64.41127 61.870099 64.431915 62.853607 64.453186 C69.903552 64.455501 77.161247 63.355682 82.656097 58.552307 C88.000797 52.378783 88.445027 47.406633 88.3125 39.421875 C87.754313 33.309732 85.529675 30.529675 81.1875 26.1875 C74.537339 21.623664 68.064168 21.721578 60.253906 21.804688 C59.242793 21.807517 58.231679 21.810347 57.189926 21.813263 C53.98066 21.824401 50.77168 21.849494 47.5625 21.875 C45.378259 21.885038 43.194014 21.894162 41.009766 21.902344 C35.67298 21.922613 30.336807 21.961774 25 22 Z " fill="#008F28" transform="translate(561,575)"/>
<path d="M0 0 C12.201511 10.599959 20.447535 22.842416 23 39 C23.960272 55.860168 21.16121 71.154352 9.6875 84.25 C8.14293 85.850829 6.580889 87.435026 5 89 C4.334844 89.698672 3.669688 90.397344 2.984375 91.117188 C-9.863092 103.719474 -28.296685 109.282649 -45.9375 109.5 C-65.756413 109.274742 -83.53155 102.917271 -98 89 C-110.030106 76.459783 -115.411372 62.040115 -115.369141 44.939941 C-114.979933 29.73259 -108.730192 16.217163 -98.355469 5.160156 C-71.229695 -19.716382 -29.550554 -22.406 0 0 Z M-82.53125 25.882812 C-88.347 34.266154 -89.861871 42.961019 -89 53 C-86.697625 62.933102 -81.631552 70.811855 -73.242188 76.621094 C-61.740063 83.6947 -49.147586 86.604429 -35.773438 83.753906 C-23.303522 80.364197 -14.0172 74.002512 -7 63 C-2.347657 54.08871 -2.207253 44.533862 -5 35 C-9.946616 23.54184 -17.680851 16.559385 -29.113281 11.667969 C-48.703121 4.89883 -69.239471 9.769665 -82.53125 25.882812 Z " fill="#008F28" transform="translate(805,590)"/>
<path d="M0 0 C8.592113 7.464325 17.592868 16.245303 19 28 C14.152351 29.901039 9.261645 31.63028 4.3125 33.25 C3.236133 33.605781 2.159766 33.961563 1.050781 34.328125 C-2.174969 35.038533 -3.919791 35.1689 -7 34 C-8.554688 32.179688 -8.554688 32.179688 -9.875 29.875 C-16.041699 20.073521 -23.637215 14.710842 -34.926758 11.442139 C-47.803588 8.696032 -60.652021 10.957591 -71.75 17.75 C-80.229449 23.802415 -85.87005 31.728467 -88 42 C-89.071188 51.693372 -86.569055 60.852514 -80.9375 68.8125 C-72.912621 78.280826 -61.257652 83.139951 -49.089844 84.160156 C-36.239568 84.696556 -24.207245 80.340299 -14.640625 71.824219 C-11.462216 68.290131 -9.27934 64.143953 -7 60 C-7.708179 59.830569 -8.416357 59.661138 -9.145996 59.486572 C-17.05576 57.556405 -24.843279 55.328804 -32.625 52.9375 C-33.79418 52.58623 -34.963359 52.234961 -36.167969 51.873047 C-37.28043 51.53209 -38.392891 51.191133 -39.539062 50.839844 C-41.042673 50.381461 -41.042673 50.381461 -42.57666 49.913818 C-45 49 -45 49 -47 47 C-23.9 47 -0.8 47 23 47 C23 62.491034 18.16191 75.466919 7.328125 86.695312 C6.559844 87.455859 5.791563 88.216406 5 89 C4.334844 89.698672 3.669688 90.397344 2.984375 91.117188 C-9.863092 103.719474 -28.296685 109.282649 -45.9375 109.5 C-65.965445 109.272366 -83.211181 102.7739 -98 89 C-98.644531 88.409609 -99.289062 87.819219 -99.953125 87.210938 C-111.198435 75.712355 -115.420092 60.240926 -115.365723 44.652588 C-115.050026 28.872123 -108.407421 15.822619 -97.640625 4.507812 C-71.305389 -20.50287 -28.640752 -21.716164 0 0 Z " fill="#008F28" transform="translate(523,590)"/>
<path d="M0 0 C0.66 0 1.32 0 2 0 C2.32573 0.606584 2.65146 1.213169 2.987061 1.838135 C9.530586 14.008658 16.153967 26.125101 22.981201 38.138916 C27.20008 45.567441 31.359598 53.02748 35.5 60.5 C40.642841 69.778504 45.830126 79.029885 51.063965 88.257324 C56.120234 97.184094 61.098717 106.153508 66.064453 115.130859 C66.664512 116.214316 67.26457 117.297773 67.882812 118.414062 C68.412778 119.372642 68.942744 120.331221 69.48877 121.318848 C70.517389 123.143775 71.588195 124.945416 72.694824 126.724121 C74 129 74 129 74 131 C69.980796 131.248477 65.964592 131.429177 61.939453 131.549316 C60.573101 131.599407 59.20728 131.667515 57.842773 131.754395 C53.407447 132.029579 49.32925 132.059108 45 131 C41.883393 128.15231 40.602631 124.850436 39 121 C37.970046 119.132157 36.917223 117.27677 35.84375 115.433594 C34.727628 113.435754 33.61311 111.437019 32.5 109.4375 C31.266965 107.229146 30.033891 105.020813 28.800781 102.8125 C28.173813 101.688437 27.546846 100.564375 26.900879 99.40625 C24.42982 94.978275 21.953056 90.553511 19.475098 86.129395 C18.293069 84.018791 17.111742 81.907795 15.931152 79.796387 C13.343371 75.17033 10.748687 70.548893 8.121094 65.945312 C7.694172 65.195159 7.267251 64.445005 6.827393 63.672119 C6.050948 62.309834 5.271077 60.949494 4.487061 59.591553 C2 55.222522 2 55.222522 2 53 C1.34 53 0.68 53 0 53 C-0.319043 54.169824 -0.319043 54.169824 -0.644531 55.363281 C-2.480294 60.288626 -5.059395 64.645893 -7.6875 69.1875 C-8.868215 71.250714 -10.047859 73.314542 -11.226562 75.378906 C-12.153237 76.9995 -12.153237 76.9995 -13.098633 78.652832 C-16.29817 84.285299 -19.427357 89.956522 -22.5625 95.625 C-27.287852 104.151164 -32.044997 112.657623 -36.875 121.125 C-37.381038 122.01397 -37.887075 122.902939 -38.408447 123.818848 C-38.869207 124.623706 -39.329966 125.428564 -39.804688 126.257812 C-40.206714 126.960513 -40.60874 127.663213 -41.022949 128.387207 C-42 130 -42 130 -43 131 C-45.145588 131.087756 -47.294044 131.106952 -49.441406 131.097656 C-50.746582 131.094434 -52.051758 131.091211 -53.396484 131.087891 C-54.785157 131.079534 -56.173829 131.071069 -57.5625 131.0625 C-58.955077 131.057487 -60.347655 131.052923 -61.740234 131.048828 C-65.160199 131.036994 -68.580078 131.020509 -72 131 C-70.679776 127.549353 -69.177936 124.317597 -67.417969 121.070312 C-66.905083 120.122449 -66.392197 119.174585 -65.86377 118.197998 C-65.310601 117.183909 -64.757432 116.169819 -64.1875 115.125 C-63.60855 114.059993 -63.0296 112.994985 -62.433105 111.897705 C-58.037882 103.839399 -53.550076 95.836344 -49.016113 87.855469 C-44.821318 80.469225 -40.681427 73.053797 -36.5625 65.625 C-31.727518 56.905805 -26.877001 48.195765 -22 39.5 C-14.628289 26.354611 -7.310714 13.179378 0 0 Z " fill="#008F28" transform="translate(322,568)"/>
<path d="M0 0 C1.58745 -0.019253 1.58745 -0.019253 3.20697 -0.038895 C4.350711 -0.046282 5.494452 -0.053669 6.672852 -0.061279 C7.850591 -0.069351 9.028331 -0.077423 10.24176 -0.085739 C12.736679 -0.099578 15.231617 -0.110301 17.726562 -0.118164 C21.534547 -0.135367 25.34166 -0.179256 29.149414 -0.223389 C31.573887 -0.233517 33.998367 -0.242032 36.422852 -0.248779 C37.558495 -0.266287 38.694139 -0.283795 39.864197 -0.301834 C46.419958 -0.283925 50.489507 0.249521 55.813477 4.177002 C59.130715 7.893307 59.813477 11.165981 59.813477 16.177002 C56.183477 16.177002 52.553477 16.177002 48.813477 16.177002 C48.153477 14.857002 47.493477 13.537002 46.813477 12.177002 C29.983477 12.177002 13.153477 12.177002 -4.186523 12.177002 C-4.186523 16.467002 -4.186523 20.757002 -4.186523 25.177002 C-2.64271 25.191584 -1.098896 25.206167 0.491699 25.221191 C6.228261 25.279234 11.964433 25.356467 17.700684 25.439453 C20.181739 25.472674 22.662869 25.500715 25.144043 25.523438 C28.713867 25.557034 32.283004 25.609355 35.852539 25.665283 C36.959008 25.671673 38.065477 25.678063 39.205475 25.684647 C45.589043 25.806071 50.526093 26.178534 55.458008 30.677002 C59.297805 35.60838 59.98452 38.811166 60.063477 44.989502 C60.089258 46.192197 60.115039 47.394893 60.141602 48.634033 C59.663395 53.797527 58.089986 57.02503 54.250977 60.489502 C50.686333 62.957332 48.846333 63.310414 44.541016 63.354004 C43.439371 63.366839 42.337726 63.379674 41.202698 63.392899 C40.006911 63.400285 38.811124 63.407672 37.579102 63.415283 C36.353183 63.423355 35.127264 63.431427 33.864197 63.439743 C31.264948 63.453594 28.66568 63.464312 26.066406 63.472168 C22.093796 63.485383 18.121799 63.533249 14.149414 63.577393 C11.625983 63.58752 9.102544 63.596036 6.579102 63.602783 C5.391412 63.620291 4.203722 63.637799 2.980042 63.655838 C-3.357734 63.639198 -7.418235 63.544295 -12.186523 59.177002 C-13.647461 57.141846 -13.647461 57.141846 -14.561523 55.114502 C-15.037187 54.1071 -15.037187 54.1071 -15.522461 53.079346 C-16.186523 51.177002 -16.186523 51.177002 -16.186523 48.177002 C-14.395592 48.09614 -12.603627 48.037875 -10.811523 47.989502 C-9.314922 47.937295 -9.314922 47.937295 -7.788086 47.884033 C-6.92957 47.980713 -6.071055 48.077393 -5.186523 48.177002 C-4.526523 49.167002 -3.866523 50.157002 -3.186523 51.177002 C-0.384009 52.111173 1.338067 52.308164 4.237305 52.322266 C5.573841 52.331835 5.573841 52.331835 6.937378 52.341599 C7.896803 52.342711 8.856228 52.343824 9.844727 52.344971 C11.32592 52.349963 11.32592 52.349963 12.837036 52.355057 C14.925044 52.36012 17.01306 52.362465 19.101074 52.362305 C22.300916 52.364493 25.500414 52.382662 28.700195 52.401611 C30.727538 52.404545 32.754882 52.40653 34.782227 52.407471 C35.741652 52.414656 36.701077 52.421842 37.689575 52.429245 C38.580599 52.426168 39.471624 52.423092 40.389648 52.419922 C41.565213 52.422059 41.565213 52.422059 42.764526 52.42424 C45.123875 52.295813 45.123875 52.295813 47.813477 50.177002 C48.178457 47.280918 48.178457 47.280918 48.000977 44.052002 C47.973906 42.956299 47.946836 41.860596 47.918945 40.731689 C47.884141 39.888643 47.849336 39.045596 47.813477 38.177002 C47.160592 38.171136 46.507707 38.165269 45.835037 38.159225 C39.03777 38.095276 32.240976 38.010851 25.444092 37.914551 C22.907697 37.881303 20.371228 37.853271 17.834717 37.830566 C14.187993 37.797019 10.541947 37.7447 6.895508 37.688721 C5.762004 37.682331 4.6285 37.675941 3.460648 37.669357 C2.399925 37.649563 1.339203 37.629769 0.246338 37.609375 C-1.149316 37.59272 -1.149316 37.59272 -2.573166 37.575729 C-6.953899 36.907348 -10.166154 34.630506 -12.936523 31.239502 C-17.166124 25.482546 -16.699074 19.119732 -16.186523 12.177002 C-14.542517 7.418036 -11.961516 4.48012 -8.186523 1.177002 C-5.186341 0.176941 -3.137046 0.033152 0 0 Z " fill="#008F28" transform="translate(758.1865234375,720.822998046875)"/>
<path d="M0 0 C1.198063 -0.003827 2.396125 -0.007654 3.630493 -0.011597 C6.158781 -0.014314 8.687098 -0.006967 11.215332 0.009766 C15.080391 0.031176 18.943592 0.009955 22.808594 -0.015625 C25.268233 -0.012982 27.727872 -0.007857 30.1875 0 C31.917402 -0.012145 31.917402 -0.012145 33.682251 -0.024536 C39.969522 0.048776 43.806946 0.320001 48.59375 4.53125 C49.19832 5.01207 49.802891 5.492891 50.425781 5.988281 C51.991391 8.056562 52.095236 9.651755 52.28125 12.21875 C52.346992 13.026992 52.412734 13.835234 52.480469 14.667969 C52.536543 15.590293 52.536543 15.590293 52.59375 16.53125 C50.991072 16.639498 49.386293 16.716956 47.78125 16.78125 C46.88793 16.827656 45.994609 16.874063 45.074219 16.921875 C44.255664 16.792969 43.437109 16.664062 42.59375 16.53125 C41.923714 15.543705 41.923714 15.543705 41.240143 14.536209 C39.776197 12.332219 39.776197 12.332219 37.379486 12.043503 C36.518684 12.049369 35.657883 12.055235 34.770996 12.061279 C33.304652 12.056891 33.304652 12.056891 31.808685 12.052414 C30.755491 12.069922 29.702297 12.08743 28.617188 12.105469 C27.536198 12.108757 26.455208 12.112045 25.341461 12.115433 C23.056681 12.125859 20.771928 12.145818 18.487305 12.174561 C14.975765 12.218662 11.464908 12.235997 7.953125 12.248047 C5.736969 12.261469 3.520822 12.276392 1.304688 12.292969 C-0.281177 12.304049 -0.281177 12.304049 -1.899078 12.315353 C-2.870337 12.328189 -3.841595 12.341024 -4.842285 12.354248 C-6.131101 12.369014 -6.131101 12.369014 -7.445953 12.384079 C-9.409617 12.317223 -9.409617 12.317223 -10.40625 13.53125 C-10.504762 15.362409 -10.535976 17.197449 -10.53125 19.03125 C-10.533828 20.031562 -10.536406 21.031875 -10.539062 22.0625 C-10.684954 24.475246 -10.684954 24.475246 -9.40625 25.53125 C-7.878327 25.638233 -6.345586 25.677462 -4.813965 25.688965 C-3.835597 25.699227 -2.857228 25.709489 -1.849213 25.720062 C-0.782644 25.727364 0.283924 25.734665 1.382812 25.742188 C3.626309 25.77027 5.869799 25.798934 8.113281 25.828125 C11.661618 25.869311 15.209822 25.906183 18.758301 25.932617 C22.175092 25.960299 25.591262 26.006189 29.007812 26.054688 C30.062235 26.05794 31.116658 26.061193 32.203033 26.064545 C38.090812 26.16235 42.416015 26.644548 47.59375 29.53125 C52.398991 34.715852 52.824526 38.394651 52.90625 45.28125 C52.949756 46.480078 52.949756 46.480078 52.994141 47.703125 C53.052196 53.133495 52.312396 56.299469 48.59375 60.53125 C44.929821 63.151132 42.386387 63.914767 37.904785 63.967041 C36.786574 63.986181 35.668362 64.00532 34.516266 64.02504 C33.317226 64.028378 32.118187 64.031717 30.882812 64.035156 C29.641314 64.045141 28.399816 64.055127 27.120697 64.065414 C24.496514 64.080591 21.872274 64.08764 19.248047 64.087158 C16.564814 64.086914 13.883114 64.10778 11.200195 64.148682 C7.323092 64.203708 3.447768 64.218369 -0.429688 64.222656 C-1.624679 64.244213 -2.81967 64.265769 -4.050873 64.287979 C-10.454064 64.235423 -14.485759 63.813088 -19.135895 59.210068 C-21.847847 55.62613 -22.656156 53.029555 -22.40625 48.53125 C-20.657632 48.422715 -18.907058 48.345416 -17.15625 48.28125 C-16.181719 48.234844 -15.207187 48.188437 -14.203125 48.140625 C-11.40625 48.53125 -11.40625 48.53125 -9.864502 50.529053 C-6.002137 53.674872 -2.108918 53.045677 2.722656 52.957031 C3.708703 52.953743 4.694751 52.950455 5.710678 52.947067 C7.792782 52.936653 9.874856 52.916714 11.956787 52.887939 C15.147785 52.843867 18.338032 52.826503 21.529297 52.814453 C23.552094 52.801029 25.574882 52.786106 27.597656 52.769531 C28.553944 52.762144 29.510232 52.754757 30.495499 52.747147 C31.383295 52.734311 32.271092 52.721476 33.185791 52.708252 C33.966485 52.698408 34.747178 52.688564 35.551529 52.678421 C37.795692 52.601281 37.795692 52.601281 40.59375 51.53125 C40.817384 50.116918 41.022015 48.699574 41.21875 47.28125 C41.334766 46.492344 41.450781 45.703437 41.570312 44.890625 C41.59715 42.189014 40.859574 40.872809 39.59375 38.53125 C38.955614 38.527604 38.317477 38.523959 37.660004 38.520203 C31.008482 38.47834 24.357647 38.408967 17.706543 38.32373 C15.225493 38.295533 12.744354 38.274312 10.263184 38.260254 C6.693219 38.238808 3.12433 38.192147 -0.445312 38.140625 C-1.551781 38.139396 -2.65825 38.138168 -3.798248 38.136902 C-9.968716 38.019979 -13.727976 37.688658 -18.40625 33.53125 C-22.521873 28.757127 -23.033536 25.066708 -22.90625 19.03125 C-22.921719 18.297773 -22.937187 17.564297 -22.953125 16.808594 C-22.91601 11.621705 -21.89183 8.574523 -18.40625 4.53125 C-12.818604 -0.504075 -7.267748 -0.051026 0 0 Z " fill="#008F28" transform="translate(284.40625,720.46875)"/>
<path d="M0 0 C23.43 0 46.86 0 71 0 C71 3.63 71 7.26 71 11 C51.2 11 31.4 11 11 11 C11 15.95 11 20.9 11 26 C28.49 26 45.98 26 64 26 C64 29.63 64 33.26 64 37 C46.51 37 29.02 37 11 37 C11 42.28 11 47.56 11 53 C30.8 53 50.6 53 71 53 C71 56.3 71 59.6 71 63 C47.57 63 24.14 63 0 63 C0 42.21 0 21.42 0 0 Z " fill="#008F28" transform="translate(565,721)"/>
<path d="M0 0 C16.230698 -0.160435 16.230698 -0.160435 23.167969 -0.195312 C27.895203 -0.219192 32.622126 -0.247391 37.349121 -0.301758 C41.16169 -0.345332 44.973925 -0.369161 48.786724 -0.379509 C50.238766 -0.38688 51.69079 -0.401274 53.142689 -0.42292 C55.182273 -0.45211 57.220493 -0.45595 59.260254 -0.454102 C60.998993 -0.467425 60.998993 -0.467425 62.772858 -0.481018 C67.889105 0.281578 70.963889 2.837828 74.34375 6.628906 C76.577686 11.17581 76.588648 14.939943 76.5 19.9375 C76.523203 21.239775 76.523203 21.239775 76.546875 22.568359 C76.510752 28.542253 75.743591 32.267201 72 37 C65.743248 41.688699 59.150802 41.529595 51.625 41.390625 C50.459929 41.384965 49.294858 41.379305 48.094482 41.373474 C44.395893 41.351194 40.698294 41.301011 37 41.25 C34.483087 41.229924 31.966159 41.211675 29.449219 41.195312 C23.299101 41.151356 17.149718 41.082385 11 41 C11 48.26 11 55.52 11 63 C7.37 63 3.74 63 0 63 C0 42.21 0 21.42 0 0 Z M11 11 C11 17.27 11 23.54 11 30 C18.208242 30.049369 25.416385 30.085705 32.624756 30.109863 C35.077898 30.119932 37.531029 30.133589 39.984131 30.150879 C43.506378 30.175087 47.028466 30.186474 50.550781 30.195312 C51.65086 30.205635 52.750939 30.215958 53.884354 30.226593 C54.905185 30.226744 55.926017 30.226895 56.977783 30.227051 C57.877131 30.231492 58.776479 30.235933 59.703079 30.240509 C62.277391 30.150931 62.277391 30.150931 65 28 C65.276682 25.405732 65.372952 23.087364 65.3125 20.5 C65.315723 19.810352 65.318945 19.120703 65.322266 18.410156 C65.38436 14.247375 65.38436 14.247375 63 11 C60.69504 10.707567 60.69504 10.707567 57.999512 10.772949 C56.958584 10.7731 55.917656 10.773251 54.845184 10.773407 C53.71807 10.78373 52.590956 10.794052 51.429688 10.804688 C50.278323 10.807517 49.126959 10.810347 47.940704 10.813263 C44.252032 10.824486 40.563599 10.849594 36.875 10.875 C34.37891 10.885027 31.882816 10.894153 29.386719 10.902344 C23.25772 10.924432 17.128901 10.958977 11 11 Z " fill="#008F28" transform="translate(446,721)"/>
<path d="M0 0 C10.29136 0 10.29136 0 15.1875 4.8125 C16.303649 5.831996 17.42222 6.848844 18.542969 7.863281 C19.11064 8.386157 19.678311 8.909033 20.263184 9.447754 C23.060213 11.947545 26.026449 14.21586 29 16.5 C34.142073 20.490555 39.136944 24.618421 44.079102 28.853027 C49.36083 33.355936 54.817728 37.62405 60.296875 41.882812 C63 44 63 44 64 45 C64.33 30.15 64.66 15.3 65 0 C68.63 0 72.26 0 76 0 C76 20.79 76 41.58 76 63 C67.339158 63 65.602247 62.916445 60.0625 57.5 C58.843569 56.382891 57.623513 55.267006 56.402344 54.152344 C55.526184 53.334192 55.526184 53.334192 54.632324 52.499512 C52.54297 50.580155 50.357119 48.812813 48.125 47.0625 C43.742351 43.596814 39.397281 40.087725 35.0625 36.5625 C34.375269 36.003933 33.688037 35.445366 32.97998 34.869873 C28.0528 30.862659 23.138208 26.840451 18.234375 22.804688 C16.19332 21.156143 14.09893 19.574198 12 18 C11.67 32.85 11.34 47.7 11 63 C7.37 63 3.74 63 0 63 C0 42.21 0 21.42 0 0 Z " fill="#008F28" transform="translate(651,721)"/>
<path d="M0 0 C3.445068 0.67627 3.445068 0.67627 5.500732 2.515625 C6.06502 3.39106 6.629307 4.266494 7.210693 5.168457 C7.880361 6.176182 8.550029 7.183906 9.23999 8.222168 C9.771124 9.056212 9.771124 9.056212 10.312988 9.907104 C11.497626 11.758404 12.717173 13.582259 13.947021 15.403809 C16.239371 18.80464 18.507466 22.220831 20.768494 25.642548 C31.28366 41.55794 31.28366 41.55794 42.295654 57.131836 C45.445068 61.476795 45.445068 61.476795 45.445068 63.67627 C40.939045 64.356294 36.924056 64.621096 32.445068 63.67627 C28.902847 60.48984 26.559759 56.931206 24.445068 52.67627 C24.445068 52.01627 24.445068 51.35627 24.445068 50.67627 C17.755019 50.51441 11.068701 50.447222 4.376709 50.444336 C2.103056 50.432366 -0.170593 50.399101 -2.443604 50.34375 C-14.351915 49.428327 -14.351915 49.428327 -25.276367 52.902222 C-27.445094 55.351535 -28.778366 58.050039 -30.162354 60.995605 C-31.554932 63.67627 -31.554932 63.67627 -33.431885 64.661621 C-35.398682 64.848145 -35.398682 64.848145 -39.054932 64.42627 C-40.282119 64.317988 -41.509307 64.209707 -42.773682 64.098145 C-43.691494 63.958926 -44.609307 63.819707 -45.554932 63.67627 C-39.377103 53.751099 -32.804528 44.099278 -26.242432 34.42627 C-24.614353 32.024106 -22.986729 29.621642 -21.360626 27.21814 C-20.29588 25.647344 -19.22794 24.078708 -18.156708 22.512329 C-15.609744 18.777197 -13.130658 15.024835 -10.780029 11.162598 C-10.34278 10.459837 -9.905531 9.757076 -9.455032 9.03302 C-8.642321 7.719921 -7.849132 6.394451 -7.080002 5.055359 C-4.973376 1.690533 -3.964229 0.754132 0 0 Z M-0.554932 16.67627 C-2.039265 18.418239 -2.039265 18.418239 -3.523682 20.691895 C-4.380264 21.950664 -4.380264 21.950664 -5.25415 23.234863 C-6.145537 24.567109 -6.145537 24.567109 -7.054932 25.92627 C-7.649189 26.798965 -8.243447 27.67166 -8.855713 28.570801 C-11.327446 32.225395 -13.576899 35.720205 -15.554932 39.67627 C-5.324932 39.67627 4.905068 39.67627 15.445068 39.67627 C13.314751 34.350477 10.615785 30.101149 7.445068 25.36377 C6.898506 24.527812 6.351943 23.691855 5.788818 22.830566 C5.262881 22.041016 4.736943 21.251465 4.195068 20.437988 C3.715537 19.71571 3.236006 18.993433 2.741943 18.249268 C2.313975 17.730178 1.886006 17.211089 1.445068 16.67627 C0.785068 16.67627 0.125068 16.67627 -0.554932 16.67627 Z " fill="#008F28" transform="translate(390.554931640625,720.32373046875)"/>
<path d="M0 0 C3.63 0 7.26 0 11 0 C11 20.79 11 41.58 11 63 C7.37 63 3.74 63 0 63 C0 42.21 0 21.42 0 0 Z " fill="#008F28" transform="translate(537,721)"/>
<path d="M0 0 C2.4375 1.5 2.4375 1.5 4 4 C4.897768 9.005482 4.763031 12.728282 2.125 17.125 C-2.276863 19.766118 -5.991475 20.019798 -11 19 C-14.414216 16.630952 -15.643466 15.025035 -17 11.125 C-17 6.956992 -16.156072 4.570995 -14 1 C-8.80675 -2.295716 -5.609792 -2.434438 0 0 Z " fill="#008F28" transform="translate(329,680)"/>
</svg>
