<?xml version="1.0" encoding="UTF-8"?>
<!-- Generator: visioncortex VTracer 0.6.4 -->
<svg version="1.1" xmlns="http://www.w3.org/2000/svg" width="1080" height="1350">
<path d="M0 0 C4.777277 2.388638 8.938721 5.489524 13.25 8.625 C14.811675 9.688712 16.374178 10.75121 17.9375 11.8125 C22.244814 14.816196 26.305587 18.062626 30.375 21.375 C35.540845 25.569215 40.808067 29.510851 46.3125 33.25 C46.976689 33.701414 47.640879 34.152827 48.325195 34.61792 C50.298874 35.95548 52.274405 37.290272 54.25 38.625 C62.22391 44.019296 69.332673 49.401503 76.03125 56.382812 C81.767982 62.180143 88.804535 66.37295 95.613281 70.792969 C97.763444 72.286934 99.500657 73.696544 101.25 75.625 C99.679568 79.764348 96.676969 82.17056 93.375 84.9375 C92.766401 85.453125 92.157803 85.96875 91.530762 86.5 C83.829951 92.934217 75.744045 98.866679 67.674805 104.826172 C65.43143 106.490407 63.200952 108.169886 60.976562 109.859375 C53.681754 115.395472 46.28196 120.694034 38.69751 125.826416 C34.602281 128.622399 30.836904 131.569269 27.179688 134.925781 C24.731041 137.081978 22.173347 139.043596 19.5625 141 C18.671758 141.667734 17.781016 142.335469 16.863281 143.023438 C14.235963 144.633603 12.283223 145.242431 9.25 145.625 C8.216455 142.524365 8.11635 140.310559 8.125 137.0625 C8.122422 136.091836 8.119844 135.121172 8.117188 134.121094 C8.25 131.625 8.25 131.625 9.25 129.625 C3.47193 129.38916 -1.263248 129.75717 -6.75 131.625 C-6.328843 134.99426 -5.337061 137.544386 -3.75 140.5 C-1.770867 144.271826 -1.102384 147.396388 -0.75 151.625 C-3.72 153.605 -6.69 155.585 -9.75 157.625 C-10.41 157.295 -11.07 156.965 -11.75 156.625 C-11.810586 155.348828 -11.871172 154.072656 -11.933594 152.757812 C-12.017996 151.08853 -12.102644 149.41926 -12.1875 147.75 C-12.226816 146.908242 -12.266133 146.066484 -12.306641 145.199219 C-12.369482 143.990723 -12.369482 143.990723 -12.433594 142.757812 C-12.470251 142.014185 -12.506909 141.270557 -12.544678 140.504395 C-12.649559 138.536357 -12.649559 138.536357 -13.75 136.625 C-20.010499 149.988461 -21.806205 161.52012 -21.9375 176.1875 C-21.97798 178.970429 -22.028488 181.752121 -22.100906 184.534409 C-22.144049 186.243712 -22.169037 187.953621 -22.171432 189.663467 C-22.268179 194.076572 -22.854445 197.188808 -24.848877 201.1521 C-27.166702 205.98842 -27.227189 209.490547 -25.75 214.625 C-24.237283 218.505572 -22.405819 222.178084 -20.5 225.878906 C-19.701788 227.467588 -19.701788 227.467588 -18.887451 229.088364 C-17.187988 232.461507 -15.468937 235.824247 -13.75 239.1875 C-12.625099 241.419316 -11.50139 243.651733 -10.378906 245.884766 C-5.013885 256.515938 0.495233 267.026404 6.408203 277.362549 C8.778267 281.560742 10.910941 285.844961 13 290.1875 C16.789817 297.863743 20.746819 305.437653 24.875 312.9375 C25.389014 313.897932 25.903027 314.858364 26.432617 315.8479 C31.519741 324.959514 38.156991 330.287896 47 335.5625 C48.392668 336.415458 49.784587 337.26964 51.175781 338.125 C51.858501 338.542656 52.541221 338.960312 53.244629 339.390625 C56.252576 341.24212 59.225787 343.137564 62.1875 345.0625 C63.145273 345.679961 64.103047 346.297422 65.089844 346.933594 C67.25 348.625 67.25 348.625 68.25 351.625 C67.554092 354.246526 66.783475 356.743428 65.898438 359.300781 C65.642528 360.062391 65.386619 360.824 65.122955 361.608688 C64.29868 364.054551 63.461902 366.495933 62.625 368.9375 C62.08384 370.539445 61.543467 372.141656 61.003906 373.744141 C58.968802 379.767638 56.929653 385.788442 54.750732 391.761719 C54.402459 392.718508 54.402459 392.718508 54.04715 393.694626 C53.424217 395.395792 52.793585 397.094132 52.162354 398.792236 C49.942366 405.685068 51.464277 410.48211 53.25 417.625 C31.8 417.625 10.35 417.625 -11.75 417.625 C-11.75 416.635 -11.75 415.645 -11.75 414.625 C-10.595 414.5425 -9.44 414.46 -8.25 414.375 C-4.41348 413.902096 -1.694825 412.613246 1.695312 410.734375 C5.884067 408.915405 10.331698 408.043545 14.791016 407.108154 C19.322924 406.164627 19.322924 406.164627 22.25 402.625 C22.357536 400.594474 22.357536 400.594474 22.015625 398.347656 C21.90541 397.459653 21.795195 396.57165 21.681641 395.656738 C21.539199 394.656265 21.396758 393.655791 21.25 392.625 C21.09209 391.507222 20.93418 390.389443 20.771484 389.237793 C20.217292 385.506063 19.613725 381.784875 19 378.0625 C18.711895 376.168545 18.711895 376.168545 18.417969 374.236328 C16.741737 364.142039 13.862345 356.784542 6.582031 349.523438 C3.121728 344.591744 2.892914 338.340811 2.617188 332.503906 C2.575625 331.759145 2.534063 331.014384 2.491241 330.247055 C2.36165 327.894204 2.243143 325.540951 2.125 323.1875 C2.038496 321.58134 1.951263 319.97522 1.863281 318.369141 C1.650434 314.454828 1.447518 310.540115 1.25 306.625 C-7.012359 313.580472 -7.012359 313.580472 -11.21875 322.984375 C-10.878479 326.097792 -10.878479 326.097792 -10.097656 328.96875 C-9.62989 332.542695 -10.611146 333.782335 -12.75 336.625 C-17.371687 341.784516 -22.541811 346.386812 -27.796875 350.886719 C-29.812371 352.68051 -31.683769 354.56399 -33.5625 356.5 C-39.159205 362.174283 -45.391203 368.358244 -52.75 371.625 C-52.588464 370.979099 -52.426929 370.333198 -52.260498 369.667725 C-51.603841 365.753849 -51.587924 361.897696 -51.582031 357.941406 C-51.575951 356.67522 -51.575951 356.67522 -51.569748 355.383453 C-51.560305 352.65143 -51.56035 349.919537 -51.5625 347.1875 C-51.561775 346.260714 -51.56105 345.333929 -51.560303 344.379059 C-51.561432 331.364288 -52.079474 318.582664 -53.540527 305.643555 C-54.380209 297.552077 -53.732466 290.96781 -51.445312 283.207031 C-50.075025 278.118493 -49.549329 274.065969 -51.933594 269.21875 C-53.778338 266.281316 -55.753385 263.461571 -57.75 260.625 C-59.627799 257.806906 -61.469756 254.966093 -63.3125 252.125 C-63.758918 251.449531 -64.205337 250.774063 -64.665283 250.078125 C-66.059636 247.946035 -67.410715 245.792089 -68.75 243.625 C-69.264417 242.813293 -69.778833 242.001587 -70.308838 241.165283 C-74.757334 233.687643 -76.505396 226.318016 -78.0625 217.8125 C-78.313223 216.529238 -78.563945 215.245977 -78.822266 213.923828 C-79.48746 210.49442 -80.132491 207.06329 -80.75 203.625 C-80.93917 202.598745 -81.12834 201.57249 -81.323242 200.515137 C-81.711572 197.885248 -81.838839 195.491325 -81.777344 192.839844 C-81.765098 191.979395 -81.752852 191.118945 -81.740234 190.232422 C-81.704999 188.448488 -81.66592 186.664626 -81.623047 184.880859 C-81.538892 178.282093 -82.052763 174.314163 -86.648438 169.363281 C-87.799519 168.21352 -88.958633 167.071753 -90.125 165.9375 C-90.7025 165.356777 -91.28 164.776055 -91.875 164.177734 C-96.557316 159.369917 -96.557316 159.369917 -102.800781 157.542969 C-109.40598 158.330117 -115.848042 159.636786 -122.332031 161.101562 C-128.461349 162.040224 -133.684312 160.082533 -138.75 156.625 C-140 154.0625 -140 154.0625 -140.75 151.625 C-142.763172 149.821519 -142.763172 149.821519 -144.75 148.625 C-143.989005 143.044369 -143.989005 143.044369 -142.699219 140.78125 C-141.463239 137.973593 -141.728367 135.921233 -141.9375 132.875 C-142.026507 127.610864 -141.289841 124.954443 -138.195312 120.78125 C-135.300567 116.462602 -133.638904 111.447733 -131.75 106.625 C-133.018438 107.800625 -133.018438 107.800625 -134.3125 109 C-137.840277 112.027833 -141.613507 114.588289 -145.5 117.125 C-151.485533 121.037374 -157.268827 125.16177 -163 129.4375 C-169.441947 134.241176 -175.96616 138.87683 -182.625 143.375 C-189.048244 147.71962 -195.248666 152.209513 -201.339844 157.011719 C-203.986407 159.073924 -206.698942 161.024304 -209.441406 162.957031 C-210.257302 163.533887 -211.073198 164.110742 -211.913818 164.705078 C-213.519714 165.835465 -215.130999 166.958246 -216.748291 168.072266 C-217.483621 168.591113 -218.21895 169.109961 -218.976562 169.644531 C-219.960037 170.326727 -219.960037 170.326727 -220.963379 171.022705 C-224.307699 174.021991 -225.630651 176.754168 -226.241943 181.214462 C-226.309812 182.588872 -226.36245 183.964093 -226.402344 185.3396 C-226.434646 186.084745 -226.466948 186.829891 -226.500229 187.597617 C-226.597691 189.939783 -226.675126 192.282015 -226.75 194.625 C-226.804233 196.064243 -226.859068 197.503463 -226.914551 198.942657 C-227.227161 207.476491 -227.413733 216.014273 -227.585968 224.551942 C-227.672231 228.815172 -227.772771 233.077061 -227.905762 237.339111 C-228.035725 241.514608 -228.130546 245.689556 -228.200897 249.866468 C-228.233316 251.442708 -228.277935 253.018749 -228.33548 254.594271 C-228.889708 264.699763 -228.889708 264.699763 -224.478516 273.459961 C-220.778864 276.929554 -216.581195 279.697512 -212.25 282.3125 C-210.80108 283.210623 -209.353152 284.110348 -207.90625 285.011719 C-207.214023 285.440171 -206.521797 285.868623 -205.808594 286.310059 C-202.699043 288.296307 -199.729401 290.449253 -196.75 292.625 C-199.75 293.625 -199.75 293.625 -201.676025 292.748047 C-202.392664 292.284629 -203.109302 291.821211 -203.847656 291.34375 C-204.645022 290.834409 -205.442388 290.325068 -206.263916 289.800293 C-207.525465 288.971023 -207.525465 288.971023 -208.8125 288.125 C-209.667068 287.573442 -210.521636 287.021885 -211.4021 286.453613 C-227.105554 276.269446 -227.105554 276.269446 -230.75 272.625 C-230.886675 269.894682 -230.909134 267.261919 -230.84375 264.535156 C-230.823433 262.885604 -230.805248 261.236024 -230.789062 259.586426 C-230.779717 258.752181 -230.770371 257.917936 -230.760742 257.058411 C-230.745092 253.513232 -230.845097 249.976271 -230.96875 246.433594 C-230.991203 245.760366 -231.013656 245.087138 -231.036789 244.393509 C-231.083377 243.002506 -231.130478 241.61152 -231.17807 240.220551 C-231.63548 226.497278 -231.881214 212.77428 -231.927246 199.043488 C-231.934034 197.23559 -231.944239 195.427701 -231.958008 193.619843 C-231.975915 191.083707 -231.980166 188.54791 -231.980469 186.011719 C-231.987614 185.265291 -231.994759 184.518864 -232.002121 183.749817 C-231.979123 178.406402 -231.612795 173.042256 -228.253906 168.683594 C-221.233182 162.821219 -213.848138 157.456888 -206.457031 152.074219 C-202.649809 149.297123 -198.90515 146.458204 -195.1875 143.5625 C-186.43998 136.78594 -177.413883 130.389294 -168.413574 123.95459 C-159.983219 117.926328 -151.648536 111.835502 -143.534424 105.386475 C-129.944305 94.614186 -129.944305 94.614186 -123.75 92.625 C-123.09 92.955 -122.43 93.285 -121.75 93.625 C-121.729375 92.47 -121.70875 91.315 -121.6875 90.125 C-120.981143 84.494039 -117.690389 81.447413 -113.75 77.625 C-113.176367 77.019141 -112.602734 76.413281 -112.011719 75.789062 C-108.990304 72.83016 -107.334142 71.714106 -103.0625 71.0625 C-101.620099 71.207561 -100.181977 71.39916 -98.75 71.625 C-97.934023 71.690742 -97.118047 71.756484 -96.277344 71.824219 C-87.273026 73.204627 -80.847263 78.358646 -73.692383 83.709473 C-72.867061 84.32355 -72.041738 84.937627 -71.191406 85.570312 C-70.456077 86.132505 -69.720747 86.694697 -68.963135 87.273926 C-66.538643 88.754029 -64.546049 89.236139 -61.75 89.625 C-59.392869 86.453747 -59.392869 86.453747 -58.910156 82.695312 C-62.431021 74.015972 -75.550185 67.40953 -83.75 63.625 C-83.499613 60.150122 -83.012158 58.872963 -80.441406 56.441406 C-78.892598 55.325723 -78.892598 55.325723 -77.3125 54.1875 C-76.126695 53.316341 -74.941854 52.443868 -73.757812 51.570312 C-72.793433 50.866968 -72.793433 50.866968 -71.80957 50.149414 C-68.04417 47.362411 -64.374229 44.452235 -60.6875 41.5625 C-54.699042 36.892802 -48.674193 32.283702 -42.582031 27.75 C-39.570591 25.490381 -36.597828 23.185143 -33.625 20.875 C-28.252862 16.722899 -22.801251 12.68398 -17.3125 8.6875 C-16.555015 8.131592 -15.797529 7.575684 -15.01709 7.00293 C-4.494553 -0.612894 -4.494553 -0.612894 0 0 Z " fill="#009D35" transform="translate(516.75,467.375)"/>
<path d="M0 0 C7.521769 3.52722 13.969535 9.245355 20.515625 14.300781 C28.464841 20.436987 36.631068 26.216721 44.890625 31.925781 C47.864477 33.984602 50.802644 36.077365 53.703125 38.238281 C59.208637 42.328545 63.998872 45.737355 70.746094 47.464844 C73.789834 48.707443 75.376874 50.996107 77.253906 53.617188 C78.563784 55.370932 78.563784 55.370932 80.675781 56.207031 C83.148517 57.504849 83.647588 58.653151 84.765625 61.175781 C85.932613 63.755693 87.051498 65.85459 88.640625 68.238281 C88.640625 69.558281 88.640625 70.878281 88.640625 72.238281 C89.628542 73.25022 90.631472 74.247519 91.640625 75.238281 C92.869416 77.539057 93.999004 79.807291 95.078125 82.175781 C95.542067 83.176779 95.542067 83.176779 96.015381 84.197998 C97.855468 88.250635 99.386953 92.292576 100.703125 96.550781 C102.240058 101.457145 104.379534 105.458378 107.109375 109.796875 C108.681389 112.303275 110.166283 114.825639 111.578125 117.425781 C111.999648 118.182461 112.421172 118.939141 112.855469 119.71875 C114.230018 124.129619 113.135872 128.089401 111.340576 132.25415 C110.793772 133.250515 110.246968 134.24688 109.683594 135.273438 C109.071934 136.400723 108.460273 137.528008 107.830078 138.689453 C107.162943 139.89333 106.49562 141.097104 105.828125 142.300781 C105.140279 143.560003 104.453442 144.819776 103.767578 146.080078 C102.051407 149.228379 100.32366 152.370145 98.592224 155.510071 C96.73649 158.880292 94.898451 162.260166 93.057861 165.638672 C92.107565 167.381782 91.155559 169.12396 90.201904 170.865234 C86.784161 177.110533 83.423269 183.384969 80.075928 189.668213 C79.430834 190.879073 78.785733 192.089929 78.140625 193.300781 C77.818772 193.90518 77.49692 194.509579 77.165314 195.132294 C73.270655 202.438089 69.270442 209.661495 65.078125 216.800781 C57.730456 229.377197 51.308209 242.455216 44.7146 255.436035 C39.560191 265.576495 34.333357 275.64459 28.799805 285.584229 C22.34592 297.2597 16.557753 309.285683 10.640625 321.238281 C-0.579375 321.238281 -11.799375 321.238281 -23.359375 321.238281 C-21.322277 317.164084 -18.938299 314.592391 -15.730469 311.484375 C-15.180769 310.942249 -14.63107 310.400122 -14.064713 309.841568 C-12.313507 308.114736 -10.556024 306.394518 -8.796875 304.675781 C-6.477348 302.40938 -4.164462 300.136502 -1.855469 297.859375 C-1.052355 297.081156 -1.052355 297.081156 -0.233017 296.287216 C5.728675 290.405254 4.886133 284.763882 4.953125 276.800781 C4.982129 275.655449 5.011133 274.510117 5.041016 273.330078 C5.053584 271.677822 5.053584 271.677822 5.066406 269.992188 C5.080989 268.984866 5.095571 267.977544 5.110596 266.939697 C4.399757 262.853757 2.108152 261.273669 -1.164307 258.964844 C-2.082643 258.41957 -2.082643 258.41957 -3.019531 257.863281 C-3.72062 257.441919 -4.421709 257.020557 -5.144043 256.586426 C-5.895728 256.141538 -6.647412 255.69665 -7.421875 255.238281 C-9.051509 254.257719 -10.680392 253.275907 -12.308594 252.292969 C-13.145679 251.788623 -13.982764 251.284277 -14.845215 250.764648 C-25.769714 244.132295 -36.503112 237.17719 -47.234375 230.238281 C-48.072749 229.698325 -48.911123 229.158369 -49.774902 228.602051 C-51.984052 227.167661 -54.175155 225.710262 -56.359375 224.238281 C-57.283633 223.62082 -58.207891 223.003359 -59.160156 222.367188 C-62.244343 219.381607 -63.846704 216.023532 -65.671875 212.175781 C-66.030879 211.45584 -66.389883 210.735898 -66.759766 209.994141 C-69.359375 204.661228 -69.359375 204.661228 -69.359375 201.238281 C-67.941869 201.353378 -66.525363 201.480818 -65.109375 201.613281 C-64.320469 201.682891 -63.531562 201.7525 -62.71875 201.824219 C-60.269577 202.25404 -58.558796 203.119932 -56.359375 204.238281 C-54.161904 203.940231 -54.161904 203.940231 -52.359375 203.238281 C-51.559844 199.951319 -51.262786 198.528049 -52.359375 195.238281 C-55.619516 193.262438 -57.800501 193.201164 -61.421875 193.863281 C-65.359375 194.238281 -65.359375 194.238281 -67.734375 192.863281 C-70.037393 189.143022 -71.160775 185.622187 -71.359375 181.238281 C-70.673841 178.573936 -69.706309 176.673123 -68.359375 174.238281 C-68.895625 174.588906 -69.431875 174.939531 -69.984375 175.300781 C-73.304771 176.611464 -74.910789 176.214296 -78.359375 175.238281 C-84.297162 172.615584 -88.786213 169.71713 -92.359375 164.238281 C-91.0873 160.422056 -89.675001 159.472725 -86.359375 157.238281 C-80.282567 154.757951 -73.862726 154.591749 -67.359375 155.238281 C-66.369375 155.898281 -65.379375 156.558281 -64.359375 157.238281 C-60.653929 157.436787 -57.889321 157.41493 -54.359375 156.238281 C-56.173053 152.392935 -58.499461 149.036908 -60.921875 145.554688 C-62.392382 143.185093 -63.400623 140.851802 -64.359375 138.238281 C-65.679375 138.238281 -66.999375 138.238281 -68.359375 138.238281 C-70.389634 137.301239 -72.396341 136.309027 -74.359375 135.238281 C-74.029375 133.918281 -73.699375 132.598281 -73.359375 131.238281 C-73.90207 131.454844 -74.444766 131.671406 -75.003906 131.894531 C-76.077051 132.312187 -76.077051 132.312187 -77.171875 132.738281 C-78.233418 133.155937 -78.233418 133.155937 -79.316406 133.582031 C-81.359375 134.238281 -81.359375 134.238281 -84.359375 134.238281 C-83.369375 136.218281 -82.379375 138.198281 -81.359375 140.238281 C-81.925273 140.576016 -82.491172 140.91375 -83.074219 141.261719 C-84.174434 141.930742 -84.174434 141.930742 -85.296875 142.613281 C-86.027773 143.054141 -86.758672 143.495 -87.511719 143.949219 C-89.497098 145.11568 -89.497098 145.11568 -90.359375 147.238281 C-90.91625 147.052656 -91.473125 146.867031 -92.046875 146.675781 C-94.758508 146.16277 -96.703085 146.574209 -99.359375 147.238281 C-104.437402 140.831106 -104.437402 140.831106 -104.246094 136.925781 C-103.671875 134.738281 -103.671875 134.738281 -102.359375 131.238281 C-104.009375 131.568281 -105.659375 131.898281 -107.359375 132.238281 C-111.420913 126.084435 -111.420913 126.084435 -111.109375 121.800781 C-110.738125 120.532344 -110.738125 120.532344 -110.359375 119.238281 C-111.679375 118.908281 -112.999375 118.578281 -114.359375 118.238281 C-114.359375 116.258281 -114.359375 114.278281 -114.359375 112.238281 C-113.699375 112.238281 -113.039375 112.238281 -112.359375 112.238281 C-112.158281 111.159336 -112.158281 111.159336 -111.953125 110.058594 C-110.988845 105.478263 -109.898087 101.216756 -107.359375 97.238281 C-104.50443 95.58164 -101.548981 94.999005 -98.359375 94.238281 C-91.758981 91.173813 -87.3187 86.501239 -82.359375 81.238281 C-85.329375 81.238281 -88.299375 81.238281 -91.359375 81.238281 C-90.699375 78.598281 -90.039375 75.958281 -89.359375 73.238281 C-90.679375 72.908281 -91.999375 72.578281 -93.359375 72.238281 C-93.045806 67.848312 -91.993728 64.772263 -89.035156 61.429688 C-85.861432 59.17331 -82.146158 59.254781 -78.359375 59.238281 C-78.33875 58.537031 -78.318125 57.835781 -78.296875 57.113281 C-76.099592 50.374946 -67.845728 46.411187 -62.240479 42.467285 C-57.245849 38.931391 -52.419024 35.208248 -47.609375 31.425781 C-5.346156 -1.725994 -5.346156 -1.725994 0 0 Z M-37.359375 111.238281 C-37.359375 112.888281 -37.359375 114.538281 -37.359375 116.238281 C-36.039375 115.578281 -34.719375 114.918281 -33.359375 114.238281 C-34.019375 114.238281 -34.679375 114.238281 -35.359375 114.238281 C-35.689375 113.248281 -36.019375 112.258281 -36.359375 111.238281 C-36.689375 111.238281 -37.019375 111.238281 -37.359375 111.238281 Z M-50.359375 115.238281 C-50.359375 116.558281 -50.359375 117.878281 -50.359375 119.238281 C-47.884375 120.228281 -47.884375 120.228281 -45.359375 121.238281 C-45.554086 119.28829 -45.554086 119.28829 -46.359375 117.238281 C-48.343152 115.953914 -48.343152 115.953914 -50.359375 115.238281 Z M-62.359375 117.238281 C-62.359375 117.898281 -62.359375 118.558281 -62.359375 119.238281 C-61.744492 119.35043 -61.129609 119.462578 -60.496094 119.578125 C-57.855826 120.222401 -55.725219 120.887569 -53.359375 122.238281 C-51.340732 125.640069 -50.359375 129.28087 -50.359375 133.238281 C-51.349375 130.928281 -52.339375 128.618281 -53.359375 126.238281 C-55.499529 127.93257 -56.285304 128.925539 -56.921875 131.613281 C-56.063166 135.62059 -53.613974 136.940917 -50.359375 139.238281 C-49.369375 139.568281 -48.379375 139.898281 -47.359375 140.238281 C-44.938072 136.606326 -45.149147 134.854788 -45.234375 130.550781 C-45.261445 128.781543 -45.261445 128.781543 -45.289062 126.976562 C-45.312266 126.07293 -45.335469 125.169297 -45.359375 124.238281 C-47.670411 122.902353 -49.983093 121.569437 -52.296875 120.238281 C-52.95623 119.856719 -53.615586 119.475156 -54.294922 119.082031 C-58.219806 116.358691 -58.219806 116.358691 -62.359375 117.238281 Z M-18.359375 132.238281 C-18.029375 133.558281 -17.699375 134.878281 -17.359375 136.238281 C-16.699375 136.238281 -16.039375 136.238281 -15.359375 136.238281 C-16.019375 134.918281 -16.679375 133.598281 -17.359375 132.238281 C-17.689375 132.238281 -18.019375 132.238281 -18.359375 132.238281 Z M-62.359375 133.238281 C-62.194375 133.836406 -62.029375 134.434531 -61.859375 135.050781 C-61.359375 137.238281 -61.359375 137.238281 -61.359375 140.238281 C-60.412105 141.935473 -59.417092 143.607634 -58.359375 145.238281 C-57.357976 142.234085 -56.84516 139.361188 -56.359375 136.238281 C-59.031851 133.895407 -59.031851 133.895407 -62.359375 133.238281 Z M-26.359375 134.238281 C-26.689375 134.898281 -27.019375 135.558281 -27.359375 136.238281 C-26.369375 135.908281 -25.379375 135.578281 -24.359375 135.238281 C-25.019375 134.908281 -25.679375 134.578281 -26.359375 134.238281 Z M-37.359375 139.238281 C-38.502904 141.52534 -38.462719 142.830929 -38.421875 145.363281 C-38.40125 146.642031 -38.380625 147.920781 -38.359375 149.238281 C-35.397917 149.551758 -35.397917 149.551758 -33.71875 147.917969 C-30.073098 143.987127 -30.073098 143.987127 -29.484375 138.800781 C-29.773125 137.955156 -30.061875 137.109531 -30.359375 136.238281 C-32.801295 136.238281 -35.281718 138.112884 -37.359375 139.238281 Z M-55.359375 140.238281 C-56.751994 142.910497 -56.751994 142.910497 -57.359375 146.238281 C-55.154954 150.647122 -52.326187 153.373362 -48.359375 156.238281 C-46.150235 152.924571 -46.134559 151.893679 -46.234375 148.050781 C-46.252422 147.149727 -46.270469 146.248672 -46.289062 145.320312 C-46.312266 144.633242 -46.335469 143.946172 -46.359375 143.238281 C-49.329375 142.248281 -52.299375 141.258281 -55.359375 140.238281 Z M-34.023438 148.808594 C-35.918872 150.837041 -36.801682 152.519528 -37.359375 155.238281 C-36.437604 157.36871 -36.437604 157.36871 -35.359375 159.238281 C-33.874895 157.4719 -32.396955 155.70002 -30.921875 153.925781 C-30.098164 152.939648 -29.274453 151.953516 -28.425781 150.9375 C-26.218159 148.35728 -26.218159 148.35728 -25.359375 145.238281 C-29.69846 145.238281 -30.875066 145.979853 -34.023438 148.808594 Z M-52.359375 178.238281 C-52.359375 178.898281 -52.359375 179.558281 -52.359375 180.238281 C-53.349375 180.733281 -53.349375 180.733281 -54.359375 181.238281 C-53.039375 181.568281 -51.719375 181.898281 -50.359375 182.238281 C-51.019375 180.918281 -51.679375 179.598281 -52.359375 178.238281 Z " fill="#009D35" transform="translate(618.359375,563.76171875)"/>
<path d="M0 0 C2.698564 1.023729 4.594598 2.073597 6.875 3.832031 C11.834821 7.482279 16.966874 10.761132 22.1875 14.019531 C33.245541 20.971774 33.245541 20.971774 37.6875 23.957031 C38.770312 24.682129 38.770312 24.682129 39.875 25.421875 C44.595512 29.582843 45.133574 33.900571 45.51474 39.901505 C45.703125 44.300433 45.857314 48.697986 45.95752 53.099854 C46.027175 55.410312 46.136215 57.719938 46.285645 60.026611 C47.479036 78.665676 47.479036 78.665676 42.836182 84.243774 C38.303986 88.063423 33.278218 90.682066 27.871155 93.051575 C25.25577 94.210906 22.857135 95.622733 20.4375 97.144531 C19.705312 97.569922 18.973125 97.995312 18.21875 98.433594 C16.069323 99.780303 14.027101 101.189044 11.96875 102.667969 C11.303916 103.137026 10.639082 103.606084 9.954102 104.089355 C8.636188 105.024021 7.33009 105.975635 6.038086 106.945801 C3.03819 109.058819 1.387994 110.122599 -2.3125 109.578125 C-5.845749 107.742491 -9.22617 105.748681 -12.5625 103.582031 C-13.975887 102.67993 -15.389977 101.77893 -16.804688 100.878906 C-17.539131 100.410332 -18.273574 99.941758 -19.030273 99.458984 C-23.59153 96.582094 -28.219101 93.811227 -32.844727 91.039307 C-34.266411 90.17839 -35.671913 89.290222 -37.060547 88.376953 C-39.324376 86.926938 -39.324376 86.926938 -42.048828 85.943359 C-45.469732 84.316551 -47.119997 83.1463 -49.3125 80.019531 C-51.083547 72.515853 -50.333669 64.532446 -50.0625 56.894531 C-50.029464 54.752667 -50.000773 52.610732 -49.976562 50.46875 C-49.677905 33.166428 -49.677905 33.166428 -47.3125 29.019531 C-45.188294 27.221904 -43.170437 25.683327 -40.875 24.144531 C-40.241023 23.706733 -39.607046 23.268936 -38.953857 22.817871 C-34.536625 19.787735 -30.064866 16.843195 -25.507812 14.027344 C-22.845206 12.354263 -20.230165 10.635253 -17.617188 8.886719 C-15.911536 7.764205 -14.205806 6.64181 -12.5 5.519531 C-11.687004 4.96604 -10.874009 4.412549 -10.036377 3.842285 C-4.17077 0.024592 -4.17077 0.024592 0 0 Z " fill="#009D35" transform="translate(378.3125,774.98046875)"/>
<path d="M0 0 C5.592969 1.608435 9.456482 3.293446 14 7 C16.319266 7.873997 18.578895 8.430328 21 9 C20.857692 10.417025 20.710993 11.83361 20.5625 13.25 C20.481289 14.038906 20.400078 14.827813 20.316406 15.640625 C19.742694 19.918679 19.742694 19.918679 19 22 C18.01 22.66 17.02 23.32 16 24 C18.475 25.98 18.475 25.98 21 28 C20.505 29.485 20.505 29.485 20 31 C19.360625 31.103125 18.72125 31.20625 18.0625 31.3125 C17.381875 31.539375 16.70125 31.76625 16 32 C14.695434 34.996159 14.695434 34.996159 14 38 C12.68 38 11.36 38 10 38 C10 38.66 10 39.32 10 40 C10.721875 40 11.44375 40 12.1875 40 C19.225124 42.502266 23.357768 55.233171 26.625 61.5625 C27.483516 63.208955 27.483516 63.208955 28.359375 64.888672 C29.928284 67.915207 31.470946 70.953174 33 74 C33.363193 74.701089 33.726387 75.402178 34.100586 76.124512 C36.083395 80.221793 36.035641 82.624297 35 87 C33.103948 91.566225 30.868685 94.889243 27 98 C21.104158 99.356373 15.501706 99.047924 9.5 98.6875 C7.898606 98.632252 6.297028 98.582074 4.695312 98.537109 C0.792306 98.416565 -3.101811 98.227267 -7 98 C-5.414747 94.829494 -2.187273 94.142392 1 93 C4.465 92.01 4.465 92.01 8 91 C7.67 84.07 7.34 77.14 7 70 C5.35 70 3.7 70 2 70 C-0.814077 68.465049 -3.002866 66.50488 -5 64 C-5.4375 60.625 -5.4375 60.625 -5 58 C-5.86625 58.773438 -5.86625 58.773438 -6.75 59.5625 C-9 61 -9 61 -11.25 60.6875 C-11.8275 60.460625 -12.405 60.23375 -13 60 C-14.139241 53.417722 -14.139241 53.417722 -13.3125 50.9375 C-12.766465 48.724524 -12.766465 48.724524 -14.5 45.875 C-17.4827 42.444895 -19.604312 41.845325 -24 41 C-23.462921 36.069315 -21.936503 32.611331 -19.5 28.3125 C-16.374162 23.002874 -16.374162 23.002874 -14.75 17.125 C-13.649596 14.007188 -11.317623 12.317623 -9 10 C-8.649375 9.113125 -8.29875 8.22625 -7.9375 7.3125 C-7 5 -7 5 -5.0625 3.6875 C-3 3 -3 3 0 3 C0 2.01 0 1.02 0 0 Z M11 15 C11.599278 18.355958 12.846224 20.378012 15 23 C15.33 22.01 15.66 21.02 16 20 C15.67 19.67 15.34 19.34 15 19 C15.99 18.01 16.98 17.02 18 16 C15.69 15.67 13.38 15.34 11 15 Z " fill="#009D35" transform="translate(695,787)"/>
<path d="M0 0 C0.059458 0.861658 0.118916 1.723315 0.180176 2.611084 C0.416453 5.850427 0.676534 9.086783 0.952148 12.322998 C1.066006 13.715819 1.170732 15.109421 1.265625 16.503662 C1.807049 24.362773 2.501528 30.842189 7.558105 37.187744 C9.029112 39.036589 10.014705 40.859665 11 43 C10.34 43 9.68 43 9 43 C7.738281 41.679688 7.738281 41.679688 6.3125 39.875 C4.136694 37.218058 1.946927 35.060134 -0.75 32.9375 C-3.926452 30.336035 -5.124063 28.087708 -6 24 C-18.120161 23.178294 -27.642018 27.472301 -37.678467 33.773193 C-44.897706 38.277569 -51.544564 40.231324 -60 41 C-60 40.34 -60 39.68 -60 39 C-59.274258 38.755078 -58.548516 38.510156 -57.800781 38.257812 C-54.67893 36.855809 -52.721854 35.165896 -50.1875 32.875 C-45.667175 29.058109 -41.212668 26.399968 -35.875 23.875 C-29.548471 20.860659 -24.336346 17.58357 -19 13 C-16.949231 11.283028 -14.891036 9.575733 -12.826172 7.875732 C-11.37554 6.680763 -9.931329 5.47795 -8.494141 4.266846 C-7.495439 3.440597 -7.495439 3.440597 -6.476562 2.597656 C-5.879243 2.097581 -5.281924 1.597505 -4.666504 1.082275 C-3 0 -3 0 0 0 Z " fill="#009D35" transform="translate(475,843)"/>
<path d="M0 0 C1.573945 -0.056074 1.573945 -0.056074 3.179688 -0.113281 C6.804786 0.410771 7.890064 1.478456 10.125 4.3125 C11.562859 7.859218 11.142738 9.261061 9.875 12.9375 C7.254944 17.990466 7.254944 17.990466 5.125 19.3125 C0.524269 20.368405 -1.789565 20.694412 -6.25 19.125 C-9.012365 17.217653 -9.988324 16.504533 -10.875 13.3125 C-11.329319 8.314988 -10.949245 5.332666 -7.875 1.3125 C-5.189327 -0.030336 -2.997531 0.069625 0 0 Z " fill="#009D35" transform="translate(310.875,577.6875)"/>
<path d="M0 0 C1.050586 0.02707 2.101172 0.054141 3.183594 0.082031 C4.361152 0.134238 4.361152 0.134238 5.5625 0.1875 C4.5625 3.1875 4.5625 3.1875 1.875 4.757812 C0.781875 5.270859 -0.31125 5.783906 -1.4375 6.3125 C-5.185511 7.872628 -5.185511 7.872628 -8.4375 10.1875 C-9.999227 10.274356 -11.564793 10.294522 -13.128906 10.285156 C-14.073145 10.281934 -15.017383 10.278711 -15.990234 10.275391 C-16.983457 10.267012 -17.97668 10.258633 -19 10.25 C-19.99709 10.245488 -20.99418 10.240977 -22.021484 10.236328 C-24.493548 10.2245 -26.965495 10.208018 -29.4375 10.1875 C-29.4375 9.5275 -29.4375 8.8675 -29.4375 8.1875 C-28.363711 7.861367 -27.289922 7.535234 -26.183594 7.199219 C-24.747334 6.758015 -23.311139 6.316597 -21.875 5.875 C-21.170527 5.66166 -20.466055 5.44832 -19.740234 5.228516 C-16.294345 4.164577 -13.1047 3.035445 -9.8125 1.53125 C-6.246964 0.111638 -3.807613 -0.128347 0 0 Z " fill="#009D35" transform="translate(456.4375,874.8125)"/>
<path d="M0 0 C2.312826 3.469239 2.424786 4.922056 2 9 C0.875 10.875 0.875 10.875 -1 12 C-4.118115 12.389764 -6.110196 12.504222 -8.875 10.9375 C-10.662353 7.859281 -10.433867 5.470939 -10 2 C-7.019835 -1.667895 -4.313483 -1.312799 0 0 Z " fill="#009D35" transform="translate(606,497)"/>
<path d="M0 0 C3.914485 1.431256 7.291333 3.275113 10.8125 5.5 C11.78832 6.108438 12.764141 6.716875 13.769531 7.34375 C14.505586 7.890313 15.241641 8.436875 16 9 C16 9.66 16 10.32 16 11 C11.397685 9.711082 8.299911 7.977854 4.625 4.9375 C3.751016 4.224648 2.877031 3.511797 1.976562 2.777344 C1.324297 2.19082 0.672031 1.604297 0 1 C0 0.67 0 0.34 0 0 Z " fill="#009D35" transform="translate(327,766)"/>
<path d="M0 0 C1.65 0 3.3 0 5 0 C5.382188 1.656147 5.713951 3.32457 6 5 C5 6 5 6 2.4375 6.0625 C1.230937 6.031562 1.230937 6.031562 0 6 C-1.125 2.25 -1.125 2.25 0 0 Z " fill="#009D35" transform="translate(461,903)"/>
<path d="M0 0 C-0.33 1.32 -0.66 2.64 -1 4 C-3.64 4 -6.28 4 -9 4 C-9 3.34 -9 2.68 -9 2 C-3.375 -1.125 -3.375 -1.125 0 0 Z " fill="#009D35" transform="translate(468,881)"/>
<path d="M0 0 C2.475 0.99 2.475 0.99 5 2 C5 2.99 5 3.98 5 5 C3.35 5.66 1.7 6.32 0 7 C-0.381333 5.008594 -0.713256 3.007209 -1 1 C-0.67 0.67 -0.34 0.34 0 0 Z " fill="#009D35" transform="translate(563,477)"/>
<path d="M0 0 C0.66 0.33 1.32 0.66 2 1 C2 2.65 2 4.3 2 6 C-1 7 -1 7 -4 6 C-2.848266 3.532 -1.952164 1.952164 0 0 Z " fill="#009D35" transform="translate(562,759)"/>
<path d="M0 0 C0.99 0 1.98 0 3 0 C3 0.99 3 1.98 3 3 C1.68 2.67 0.36 2.34 -1 2 C-0.67 1.34 -0.34 0.68 0 0 Z " fill="#009D35" transform="translate(580,474)"/>
<path d="M0 0 C0.99 0 1.98 0 3 0 C3 0.66 3 1.32 3 2 C2.01 2 1.02 2 0 2 C0 1.34 0 0.68 0 0 Z " fill="#009D35" transform="translate(354,550)"/>
<path d="M0 0 C0.66 0.66 1.32 1.32 2 2 C1.01 2 0.02 2 -1 2 C-0.67 1.34 -0.34 0.68 0 0 Z " fill="#009D35" transform="translate(512,451)"/>
<path d="M0 0 C2 1 2 1 2 1 Z " fill="#009D35" transform="translate(402,495)"/>
</svg>
